<svg xmlns="http://www.w3.org/2000/svg" viewBox="0 0 64 64" role="img" aria-labelledby="title desc">
  <title id="title">RoomLink mark</title>
  <desc id="desc">A room door and QR-inspired emblem for RoomLink.</desc>
  <defs>
    <linearGradient id="bg" x1="10" y1="6" x2="56" y2="58" gradientUnits="userSpaceOnUse">
      <stop stop-color="#0A84FF"/>
      <stop offset="1" stop-color="#2348C6"/>
    </linearGradient>
    <linearGradient id="shine" x1="19" y1="13" x2="49" y2="49" gradientUnits="userSpaceOnUse">
      <stop stop-color="#FFFFFF" stop-opacity=".95"/>
      <stop offset="1" stop-color="#DDEBFF" stop-opacity=".82"/>
    </linearGradient>
  </defs>

  <rect width="64" height="64" rx="18" fill="url(#bg)"/>
  <path d="M12 22c0-5.5 4.5-10 10-10h20c5.5 0 10 4.5 10 10v20c0 5.5-4.5 10-10 10H22c-5.5 0-10-4.5-10-10V22Z" fill="#FFFFFF" opacity=".1"/>

  <path d="M23 19h18c1.7 0 3 1.3 3 3v25H20V22c0-1.7 1.3-3 3-3Z" fill="none" stroke="url(#shine)" stroke-width="3.5" stroke-linejoin="round"/>
  <path d="M29 47V26h12" fill="none" stroke="url(#shine)" stroke-width="3.5" stroke-linecap="round" stroke-linejoin="round"/>
  <circle cx="36" cy="36" r="2" fill="#FFFFFF"/>

  <path d="M16 16h9v9h-9v-9Zm4 4v1h1v-1h-1Zm19-4h9v9h-9v-9Zm4 4v1h1v-1h-1ZM16 39h9v9h-9v-9Zm4 4v1h1v-1h-1Z" fill="#FFFFFF"/>
  <path d="M45 39h3v3h-3v-3Zm-6 0h3v3h-3v-3Zm6 6h3v3h-3v-3Zm-6 0h3v3h-3v-3Z" fill="#DDEBFF"/>

  <path d="M27 53h10c2.6 0 4.8-1.4 6-3.5" fill="none" stroke="#B9D8FF" stroke-width="3" stroke-linecap="round"/>
</svg>
